<svg width="1950" height="4759" viewBox="0 0 1950 4759" fill="none" xmlns="http://www.w3.org/2000/svg">
<g clip-path="url(#clip0_1080_652)">
<g filter="url(#filter0_f_1080_652)">
<rect x="-6.03299" y="743.15" width="92.126" height="92.126" rx="46.063" transform="rotate(-150 -6.03299 743.15)" fill="url(#paint0_linear_1080_652)"/>
<rect x="-23.9255" y="1026.42" width="92.126" height="92.126" rx="46.063" transform="rotate(-150 -23.9255 1026.42)" fill="url(#paint1_linear_1080_652)"/>
<rect x="101.613" y="805.299" width="92.126" height="92.126" rx="46.063" transform="rotate(-150 101.613 805.299)" fill="url(#paint2_linear_1080_652)"/>
<rect x="38.0458" y="915.4" width="92.126" height="92.126" rx="46.063" transform="rotate(-150 38.0458 915.4)" fill="url(#paint3_linear_1080_652)"/>
<rect x="212.21" y="868.006" width="92.126" height="92.126" rx="46.063" transform="rotate(-150 212.21 868.006)" fill="url(#paint4_linear_1080_652)"/>
<rect x="148.643" y="978.107" width="92.126" height="92.126" rx="46.063" transform="rotate(-150 148.643 978.107)" fill="url(#paint5_linear_1080_652)"/>
<rect x="320.405" y="929.491" width="92.126" height="92.126" rx="46.063" transform="rotate(-150 320.405 929.491)" fill="url(#paint6_linear_1080_652)"/>
<rect x="256.838" y="1039.59" width="92.126" height="92.126" rx="46.063" transform="rotate(-150 256.838 1039.59)" fill="url(#paint7_linear_1080_652)"/>
<rect x="194.007" y="1150.12" width="92.126" height="92.126" rx="46.063" transform="rotate(-150 194.007 1150.12)" fill="url(#paint8_linear_1080_652)"/>
<rect x="130.44" y="1260.22" width="92.126" height="92.126" rx="46.063" transform="rotate(-150 130.44 1260.22)" fill="url(#paint9_linear_1080_652)"/>
<rect x="302.512" y="1212.76" width="92.126" height="92.126" rx="46.063" transform="rotate(-150 302.512 1212.76)" fill="url(#paint10_linear_1080_652)"/>
<rect x="238.945" y="1322.87" width="92.126" height="92.126" rx="46.063" transform="rotate(-150 238.945 1322.87)" fill="url(#paint11_linear_1080_652)"/>
<rect x="428.051" y="991.64" width="92.126" height="92.126" rx="46.063" transform="rotate(-150 428.051 991.64)" fill="url(#paint12_linear_1080_652)"/>
<rect x="364.484" y="1101.74" width="92.126" height="92.126" rx="46.063" transform="rotate(-150 364.484 1101.74)" fill="url(#paint13_linear_1080_652)"/>
<rect x="85.5014" y="1087.47" width="92.126" height="92.126" rx="46.063" transform="rotate(-150 85.5014 1087.47)" fill="url(#paint14_linear_1080_652)"/>
<rect x="21.9344" y="1197.57" width="92.126" height="92.126" rx="46.063" transform="rotate(-150 21.9344 1197.57)" fill="url(#paint15_linear_1080_652)"/>
<rect x="-35.6225" y="1304.7" width="92.126" height="92.126" rx="46.063" transform="rotate(-150 -35.6225 1304.7)" fill="url(#paint16_linear_1080_652)"/>
<rect x="72.572" y="1366.18" width="92.126" height="92.126" rx="46.063" transform="rotate(-150 72.572 1366.18)" fill="url(#paint17_linear_1080_652)"/>
<rect x="9.00499" y="1476.28" width="92.126" height="92.126" rx="46.063" transform="rotate(-150 9.00499 1476.28)" fill="url(#paint18_linear_1080_652)"/>
<rect x="54.6795" y="1649.45" width="92.126" height="92.126" rx="46.063" transform="rotate(-150 54.6795 1649.45)" fill="url(#paint19_linear_1080_652)"/>
<rect x="-8.88744" y="1759.55" width="92.126" height="92.126" rx="46.063" transform="rotate(-150 -8.88744 1759.55)" fill="url(#paint20_linear_1080_652)"/>
<rect x="180.218" y="1428.33" width="92.126" height="92.126" rx="46.063" transform="rotate(-150 180.218 1428.33)" fill="url(#paint21_linear_1080_652)"/>
<rect x="116.651" y="1538.43" width="92.126" height="92.126" rx="46.063" transform="rotate(-150 116.651 1538.43)" fill="url(#paint22_linear_1080_652)"/>
</g>
<g opacity="0.5">
<g filter="url(#filter1_f_1080_652)">
<circle cx="-154" cy="2669" r="478" fill="#DFE9FC"/>
</g>
<g filter="url(#filter2_f_1080_652)">
<circle cx="-117" cy="2777" r="363" fill="#FF9346" fill-opacity="0.5"/>
</g>
</g>
<g opacity="0.5">
<g filter="url(#filter3_f_1080_652)">
<circle cx="54.4999" cy="2758.5" r="294.5" fill="#FF9D00" fill-opacity="0.5"/>
</g>
<g filter="url(#filter4_f_1080_652)">
<path d="M595 2790C595 2939.12 474.117 3060 325 3060C175.883 3060 54.9999 2939.12 54.9999 2790C54.9999 2640.88 175.883 2520 325 2520C474.117 2520 595 2640.88 595 2790Z" fill="#FF004D" fill-opacity="0.5"/>
</g>
</g>
<g filter="url(#filter5_f_1080_652)">
<rect x="-196.657" y="2865.74" width="266" height="68" rx="34" transform="rotate(-30 -196.657 2865.74)" fill="white" fill-opacity="0.2"/>
<rect x="-38.3131" y="2548" width="266" height="68" rx="34" transform="rotate(-30 -38.3131 2548)" fill="white" fill-opacity="0.2"/>
<rect x="-117.485" y="2706.87" width="266" height="68" rx="34" transform="rotate(-30 -117.485 2706.87)" fill="white" fill-opacity="0.2"/>
<rect x="59.6869" y="2717.74" width="266" height="68" rx="34" transform="rotate(-30 59.6869 2717.74)" fill="white" fill-opacity="0.2"/>
</g>
<g opacity="0.5">
<g filter="url(#filter6_f_1080_652)">
<circle cx="1515" cy="1552" r="478" fill="#DFE9FC"/>
</g>
<g filter="url(#filter7_f_1080_652)">
<circle cx="1552" cy="1660" r="363" fill="#F49664" fill-opacity="0.5"/>
</g>
</g>
<g opacity="0.5">
<g filter="url(#filter8_f_1080_652)">
<circle cx="1723.5" cy="1641.5" r="294.5" fill="#FF6614" fill-opacity="0.5"/>
</g>
<g filter="url(#filter9_f_1080_652)">
<path d="M2264 1673C2264 1822.12 2143.12 1943 1994 1943C1844.88 1943 1724 1822.12 1724 1673C1724 1523.88 1844.88 1403 1994 1403C2143.12 1403 2264 1523.88 2264 1673Z" fill="#FF004D" fill-opacity="0.5"/>
</g>
</g>
</g>
<defs>
<filter id="filter0_f_1080_652" x="-659.267" y="528.671" width="1160.53" height="1258.03" filterUnits="userSpaceOnUse" color-interpolation-filters="sRGB">
<feFlood flood-opacity="0" result="BackgroundImageFix"/>
<feBlend mode="normal" in="SourceGraphic" in2="BackgroundImageFix" result="shape"/>
<feGaussianBlur stdDeviation="22" result="effect1_foregroundBlur_1080_652"/>
</filter>
<filter id="filter1_f_1080_652" x="-832" y="1991" width="1356" height="1356" filterUnits="userSpaceOnUse" color-interpolation-filters="sRGB">
<feFlood flood-opacity="0" result="BackgroundImageFix"/>
<feBlend mode="normal" in="SourceGraphic" in2="BackgroundImageFix" result="shape"/>
<feGaussianBlur stdDeviation="100" result="effect1_foregroundBlur_1080_652"/>
</filter>
<filter id="filter2_f_1080_652" x="-880" y="2014" width="1526" height="1526" filterUnits="userSpaceOnUse" color-interpolation-filters="sRGB">
<feFlood flood-opacity="0" result="BackgroundImageFix"/>
<feBlend mode="normal" in="SourceGraphic" in2="BackgroundImageFix" result="shape"/>
<feGaussianBlur stdDeviation="200" result="effect1_foregroundBlur_1080_652"/>
</filter>
<filter id="filter3_f_1080_652" x="-640" y="2064" width="1389" height="1389" filterUnits="userSpaceOnUse" color-interpolation-filters="sRGB">
<feFlood flood-opacity="0" result="BackgroundImageFix"/>
<feBlend mode="normal" in="SourceGraphic" in2="BackgroundImageFix" result="shape"/>
<feGaussianBlur stdDeviation="200" result="effect1_foregroundBlur_1080_652"/>
</filter>
<filter id="filter4_f_1080_652" x="-345" y="2120" width="1340" height="1340" filterUnits="userSpaceOnUse" color-interpolation-filters="sRGB">
<feFlood flood-opacity="0" result="BackgroundImageFix"/>
<feBlend mode="normal" in="SourceGraphic" in2="BackgroundImageFix" result="shape"/>
<feGaussianBlur stdDeviation="200" result="effect1_foregroundBlur_1080_652"/>
</filter>
<filter id="filter5_f_1080_652" x="-550.561" y="2415.44" width="874.171" height="656.752" filterUnits="userSpaceOnUse" color-interpolation-filters="sRGB">
<feFlood flood-opacity="0" result="BackgroundImageFix"/>
<feBlend mode="normal" in="SourceGraphic" in2="BackgroundImageFix" result="shape"/>
<feGaussianBlur stdDeviation="6" result="effect1_foregroundBlur_1080_652"/>
</filter>
<filter id="filter6_f_1080_652" x="837" y="874" width="1356" height="1356" filterUnits="userSpaceOnUse" color-interpolation-filters="sRGB">
<feFlood flood-opacity="0" result="BackgroundImageFix"/>
<feBlend mode="normal" in="SourceGraphic" in2="BackgroundImageFix" result="shape"/>
<feGaussianBlur stdDeviation="100" result="effect1_foregroundBlur_1080_652"/>
</filter>
<filter id="filter7_f_1080_652" x="789" y="897" width="1526" height="1526" filterUnits="userSpaceOnUse" color-interpolation-filters="sRGB">
<feFlood flood-opacity="0" result="BackgroundImageFix"/>
<feBlend mode="normal" in="SourceGraphic" in2="BackgroundImageFix" result="shape"/>
<feGaussianBlur stdDeviation="200" result="effect1_foregroundBlur_1080_652"/>
</filter>
<filter id="filter8_f_1080_652" x="1029" y="947" width="1389" height="1389" filterUnits="userSpaceOnUse" color-interpolation-filters="sRGB">
<feFlood flood-opacity="0" result="BackgroundImageFix"/>
<feBlend mode="normal" in="SourceGraphic" in2="BackgroundImageFix" result="shape"/>
<feGaussianBlur stdDeviation="200" result="effect1_foregroundBlur_1080_652"/>
</filter>
<filter id="filter9_f_1080_652" x="1324" y="1003" width="1340" height="1340" filterUnits="userSpaceOnUse" color-interpolation-filters="sRGB">
<feFlood flood-opacity="0" result="BackgroundImageFix"/>
<feBlend mode="normal" in="SourceGraphic" in2="BackgroundImageFix" result="shape"/>
<feGaussianBlur stdDeviation="200" result="effect1_foregroundBlur_1080_652"/>
</filter>
<linearGradient id="paint0_linear_1080_652" x1="40.03" y1="743.15" x2="40.03" y2="835.276" gradientUnits="userSpaceOnUse">
<stop stop-color="#FFD9C5"/>
<stop offset="1" stop-color="#FAEFFF" stop-opacity="0"/>
</linearGradient>
<linearGradient id="paint1_linear_1080_652" x1="22.1375" y1="1026.42" x2="22.1375" y2="1118.55" gradientUnits="userSpaceOnUse">
<stop stop-color="#FFD9C5"/>
<stop offset="1" stop-color="#FAEFFF" stop-opacity="0"/>
</linearGradient>
<linearGradient id="paint2_linear_1080_652" x1="147.676" y1="805.299" x2="147.676" y2="897.425" gradientUnits="userSpaceOnUse">
<stop stop-color="#FFD9C5"/>
<stop offset="1" stop-color="#FAEFFF" stop-opacity="0"/>
</linearGradient>
<linearGradient id="paint3_linear_1080_652" x1="84.1088" y1="915.4" x2="84.1088" y2="1007.53" gradientUnits="userSpaceOnUse">
<stop stop-color="#FFD9C5"/>
<stop offset="1" stop-color="#FAEFFF" stop-opacity="0"/>
</linearGradient>
<linearGradient id="paint4_linear_1080_652" x1="258.273" y1="868.006" x2="258.273" y2="960.132" gradientUnits="userSpaceOnUse">
<stop stop-color="#FFD9C5"/>
<stop offset="1" stop-color="#FAEFFF" stop-opacity="0"/>
</linearGradient>
<linearGradient id="paint5_linear_1080_652" x1="194.706" y1="978.107" x2="194.706" y2="1070.23" gradientUnits="userSpaceOnUse">
<stop stop-color="#FFD9C5"/>
<stop offset="1" stop-color="#FAEFFF" stop-opacity="0"/>
</linearGradient>
<linearGradient id="paint6_linear_1080_652" x1="366.468" y1="929.491" x2="366.468" y2="1021.62" gradientUnits="userSpaceOnUse">
<stop stop-color="#FFD9C5"/>
<stop offset="1" stop-color="#FAEFFF" stop-opacity="0"/>
</linearGradient>
<linearGradient id="paint7_linear_1080_652" x1="302.901" y1="1039.59" x2="302.901" y2="1131.72" gradientUnits="userSpaceOnUse">
<stop stop-color="#FFD9C5"/>
<stop offset="1" stop-color="#FAEFFF" stop-opacity="0"/>
</linearGradient>
<linearGradient id="paint8_linear_1080_652" x1="240.07" y1="1150.12" x2="240.07" y2="1242.24" gradientUnits="userSpaceOnUse">
<stop stop-color="#FFD9C5"/>
<stop offset="1" stop-color="#FAEFFF" stop-opacity="0"/>
</linearGradient>
<linearGradient id="paint9_linear_1080_652" x1="176.503" y1="1260.22" x2="176.503" y2="1352.35" gradientUnits="userSpaceOnUse">
<stop stop-color="#FFD9C5"/>
<stop offset="1" stop-color="#FAEFFF" stop-opacity="0"/>
</linearGradient>
<linearGradient id="paint10_linear_1080_652" x1="348.575" y1="1212.76" x2="348.575" y2="1304.89" gradientUnits="userSpaceOnUse">
<stop stop-color="#FFD9C5"/>
<stop offset="1" stop-color="#FAEFFF" stop-opacity="0"/>
</linearGradient>
<linearGradient id="paint11_linear_1080_652" x1="285.008" y1="1322.87" x2="285.008" y2="1414.99" gradientUnits="userSpaceOnUse">
<stop stop-color="#FFD9C5"/>
<stop offset="1" stop-color="#FAEFFF" stop-opacity="0"/>
</linearGradient>
<linearGradient id="paint12_linear_1080_652" x1="474.114" y1="991.64" x2="474.114" y2="1083.77" gradientUnits="userSpaceOnUse">
<stop stop-color="#FFD9C5"/>
<stop offset="1" stop-color="#FAEFFF" stop-opacity="0"/>
</linearGradient>
<linearGradient id="paint13_linear_1080_652" x1="410.547" y1="1101.74" x2="410.547" y2="1193.87" gradientUnits="userSpaceOnUse">
<stop stop-color="#FFD9C5"/>
<stop offset="1" stop-color="#FAEFFF" stop-opacity="0"/>
</linearGradient>
<linearGradient id="paint14_linear_1080_652" x1="131.564" y1="1087.47" x2="131.564" y2="1179.6" gradientUnits="userSpaceOnUse">
<stop stop-color="#FFD9C5"/>
<stop offset="1" stop-color="#FAEFFF" stop-opacity="0"/>
</linearGradient>
<linearGradient id="paint15_linear_1080_652" x1="67.9974" y1="1197.57" x2="67.9974" y2="1289.7" gradientUnits="userSpaceOnUse">
<stop stop-color="#FFD9C5"/>
<stop offset="1" stop-color="#FAEFFF" stop-opacity="0"/>
</linearGradient>
<linearGradient id="paint16_linear_1080_652" x1="10.4405" y1="1304.7" x2="10.4405" y2="1396.82" gradientUnits="userSpaceOnUse">
<stop stop-color="#FFD9C5"/>
<stop offset="1" stop-color="#FAEFFF" stop-opacity="0"/>
</linearGradient>
<linearGradient id="paint17_linear_1080_652" x1="118.635" y1="1366.18" x2="118.635" y2="1458.31" gradientUnits="userSpaceOnUse">
<stop stop-color="#FFD9C5"/>
<stop offset="1" stop-color="#FAEFFF" stop-opacity="0"/>
</linearGradient>
<linearGradient id="paint18_linear_1080_652" x1="55.068" y1="1476.28" x2="55.068" y2="1568.41" gradientUnits="userSpaceOnUse">
<stop stop-color="#FFD9C5"/>
<stop offset="1" stop-color="#FAEFFF" stop-opacity="0"/>
</linearGradient>
<linearGradient id="paint19_linear_1080_652" x1="100.743" y1="1649.45" x2="100.743" y2="1741.58" gradientUnits="userSpaceOnUse">
<stop stop-color="#FFD9C5"/>
<stop offset="1" stop-color="#FAEFFF" stop-opacity="0"/>
</linearGradient>
<linearGradient id="paint20_linear_1080_652" x1="37.1756" y1="1759.55" x2="37.1756" y2="1851.68" gradientUnits="userSpaceOnUse">
<stop stop-color="#FFD9C5"/>
<stop offset="1" stop-color="#FAEFFF" stop-opacity="0"/>
</linearGradient>
<linearGradient id="paint21_linear_1080_652" x1="226.281" y1="1428.33" x2="226.281" y2="1520.46" gradientUnits="userSpaceOnUse">
<stop stop-color="#FFD9C5"/>
<stop offset="1" stop-color="#FAEFFF" stop-opacity="0"/>
</linearGradient>
<linearGradient id="paint22_linear_1080_652" x1="162.714" y1="1538.43" x2="162.714" y2="1630.56" gradientUnits="userSpaceOnUse">
<stop stop-color="#FFD9C5"/>
<stop offset="1" stop-color="#FAEFFF" stop-opacity="0"/>
</linearGradient>
<clipPath id="clip0_1080_652">
<rect width="1950" height="4760" fill="white" transform="translate(0 -1)"/>
</clipPath>
</defs>
</svg>
