<svg width="1284" height="848" viewBox="0 0 1284 848" fill="none" xmlns="http://www.w3.org/2000/svg">
<g opacity="0.5">
<g filter="url(#filter0_f_552_165)">
<circle cx="135" cy="-23" r="478" fill="#DFE9FC"/>
</g>
<g filter="url(#filter1_f_552_165)">
<circle cx="172" cy="85" r="363" fill="#9610FF" fill-opacity="0.5"/>
</g>
</g>
<g opacity="0.5">
<g filter="url(#filter2_f_552_165)">
<circle cx="343.5" cy="66.5" r="294.5" fill="#0094FF" fill-opacity="0.5"/>
</g>
<g filter="url(#filter3_f_552_165)">
<path d="M884 98C884 247.117 763.117 368 614 368C464.883 368 344 247.117 344 98C344 -51.1169 464.883 -172 614 -172C763.117 -172 884 -51.1169 884 98Z" fill="#FF004D" fill-opacity="0.5"/>
</g>
</g>
<g filter="url(#filter4_f_552_165)">
<rect x="92.3435" y="173.741" width="266" height="68" rx="34" transform="rotate(-30 92.3435 173.741)" fill="white" fill-opacity="0.2"/>
<rect x="-5.65652" y="4.00007" width="266" height="68" rx="34" transform="rotate(-30 -5.65652 4.00007)" fill="white" fill-opacity="0.2"/>
<rect x="-262" y="152" width="266" height="68" rx="34" transform="rotate(-30 -262 152)" fill="white" fill-opacity="0.2"/>
<rect x="171.515" y="14.8705" width="266" height="68" rx="34" transform="rotate(-30 171.515 14.8705)" fill="white" fill-opacity="0.2"/>
<rect x="-84.8282" y="162.871" width="266" height="68" rx="34" transform="rotate(-30 -84.8282 162.871)" fill="white" fill-opacity="0.2"/>
<rect x="-164" y="321.741" width="266" height="68" rx="34" transform="rotate(-30 -164 321.741)" fill="white" fill-opacity="0.2"/>
<rect x="348.687" y="25.741" width="266" height="68" rx="34" transform="rotate(-30 348.687 25.741)" fill="white" fill-opacity="0.2"/>
</g>
<defs>
<filter id="filter0_f_552_165" x="-543" y="-701" width="1356" height="1356" filterUnits="userSpaceOnUse" color-interpolation-filters="sRGB">
<feFlood flood-opacity="0" result="BackgroundImageFix"/>
<feBlend mode="normal" in="SourceGraphic" in2="BackgroundImageFix" result="shape"/>
<feGaussianBlur stdDeviation="100" result="effect1_foregroundBlur_552_165"/>
</filter>
<filter id="filter1_f_552_165" x="-591" y="-678" width="1526" height="1526" filterUnits="userSpaceOnUse" color-interpolation-filters="sRGB">
<feFlood flood-opacity="0" result="BackgroundImageFix"/>
<feBlend mode="normal" in="SourceGraphic" in2="BackgroundImageFix" result="shape"/>
<feGaussianBlur stdDeviation="200" result="effect1_foregroundBlur_552_165"/>
</filter>
<filter id="filter2_f_552_165" x="-351" y="-628" width="1389" height="1389" filterUnits="userSpaceOnUse" color-interpolation-filters="sRGB">
<feFlood flood-opacity="0" result="BackgroundImageFix"/>
<feBlend mode="normal" in="SourceGraphic" in2="BackgroundImageFix" result="shape"/>
<feGaussianBlur stdDeviation="200" result="effect1_foregroundBlur_552_165"/>
</filter>
<filter id="filter3_f_552_165" x="-56" y="-572" width="1340" height="1340" filterUnits="userSpaceOnUse" color-interpolation-filters="sRGB">
<feFlood flood-opacity="0" result="BackgroundImageFix"/>
<feBlend mode="normal" in="SourceGraphic" in2="BackgroundImageFix" result="shape"/>
<feGaussianBlur stdDeviation="200" result="effect1_foregroundBlur_552_165"/>
</filter>
<filter id="filter4_f_552_165" x="-261.561" y="-276.561" width="874.171" height="656.752" filterUnits="userSpaceOnUse" color-interpolation-filters="sRGB">
<feFlood flood-opacity="0" result="BackgroundImageFix"/>
<feBlend mode="normal" in="SourceGraphic" in2="BackgroundImageFix" result="shape"/>
<feGaussianBlur stdDeviation="6" result="effect1_foregroundBlur_552_165"/>
</filter>
</defs>
</svg>
